<svg width="59" height="58" viewBox="0 0 59 58" fill="none" xmlns="http://www.w3.org/2000/svg">
<path d="M25.4717 42.399L17.619 56.0004L15.6974 48.8294L8.5 50.758L16.0349 37.707" stroke="#494949" stroke-width="2" stroke-miterlimit="10" stroke-linecap="round" stroke-linejoin="round"/>
<path d="M42.8897 37.6562L50.4539 50.7579L43.2565 48.8293L41.3349 56.0004L33.4424 42.3302" stroke="#494949" stroke-width="2" stroke-miterlimit="10" stroke-linecap="round" stroke-linejoin="round"/>
<path d="M31.423 2.68687C33.5983 1.79661 36.1003 2.467 37.5389 4.32558C38.3785 5.41026 39.6105 6.1216 40.9697 6.30631C43.2986 6.623 45.1301 8.4545 45.4468 10.7835C45.6315 12.1427 46.3429 13.3747 47.4276 14.2143C49.2861 15.6529 49.9565 18.1549 49.0663 20.3302C48.5468 21.5996 48.5468 23.0223 49.0663 24.2917C49.9565 26.4669 49.2861 28.9688 47.4276 30.4075C46.3429 31.2471 45.6315 32.4792 45.4468 33.8382C45.1301 36.1671 43.2986 37.9988 40.9697 38.3155C39.6105 38.5002 38.3785 39.2116 37.5389 40.2961C36.1003 42.1548 33.5983 42.8252 31.423 41.9349C30.1536 41.4154 28.7309 41.4154 27.4615 41.9349C25.2863 42.8252 22.7844 42.1548 21.3457 40.2961C20.506 39.2116 19.274 38.5002 17.915 38.3155C15.5861 37.9988 13.7544 36.1672 13.4378 33.8383C13.253 32.4793 12.5416 31.2471 11.4571 30.4075C9.59835 28.9688 8.92796 26.4669 9.81822 24.2917C10.3377 23.0223 10.3377 21.5996 9.81822 20.3302C8.92796 18.1549 9.59835 15.6529 11.4571 14.2143C12.5416 13.3747 13.253 12.1427 13.4378 10.7835C13.7544 8.4545 15.586 6.623 17.9149 6.30631C19.2739 6.1216 20.506 5.41026 21.3457 4.32558C22.7844 2.467 25.2863 1.79661 27.4615 2.68687C28.7309 3.2064 30.1536 3.2064 31.423 2.68687Z" stroke="#494949" stroke-width="2" stroke-miterlimit="10" stroke-linecap="round" stroke-linejoin="round"/>
<path d="M28.2271 28.8094L21.8569 22.439L25.2535 19.0426L28.2271 22.0163L33.7006 16.543L37.097 19.9395L28.2271 28.8094Z" stroke="#494949" stroke-width="2" stroke-miterlimit="10" stroke-linecap="round" stroke-linejoin="round"/>
<path d="M24.6505 10.4922C19.8041 12.414 16.377 17.144 16.377 22.6745C16.377 29.9094 22.2421 35.7746 29.4771 35.7746C36.712 35.7746 42.5771 29.9094 42.5771 22.6745C42.5771 17.144 39.1501 12.414 34.3038 10.4922" stroke="#494949" stroke-width="2" stroke-miterlimit="10" stroke-linecap="round" stroke-linejoin="round"/>
</svg>
