<svg width="58" height="58" viewBox="0 0 58 58" fill="none" xmlns="http://www.w3.org/2000/svg">
<path d="M41.3343 36.92C41.7817 36.5041 41.8072 35.8044 41.3914 35.3569C40.9756 34.9095 40.2758 34.884 39.8285 35.2999C36.87 38.0498 33.0108 39.5644 28.9616 39.5644C25.7259 39.5644 22.6114 38.6038 19.9548 36.7866C19.2979 36.3372 18.6705 35.8366 18.0901 35.2987C17.6421 34.8836 16.9424 34.9101 16.5272 35.3581C16.112 35.8062 16.1386 36.5059 16.5866 36.9212C17.2465 37.5326 17.9596 38.1017 18.706 38.6123C21.732 40.6823 25.2783 41.7763 28.9616 41.7763C33.5713 41.7763 37.9653 40.0517 41.3343 36.92Z" fill="#2E2E2E"/>
<path d="M28.9612 5.39453C24.3517 5.39453 19.9573 7.11914 16.5875 10.2507C16.1401 10.6665 16.1144 11.3663 16.5302 11.8137C16.946 12.2611 17.6457 12.2866 18.0932 11.871C21.0525 9.12101 24.9121 7.60642 28.9612 7.60642C33.0103 7.60642 36.8696 9.1209 39.8281 11.8709C40.0411 12.069 40.3113 12.1669 40.5808 12.1669C40.8774 12.1669 41.1733 12.0483 41.3911 11.814C41.807 11.3665 41.7814 10.6668 41.3341 10.251C37.9649 7.11925 33.5709 5.39453 28.9612 5.39453Z" fill="#2E2E2E"/>
<path d="M56.9498 43.2739L48.5355 34.8597C48.916 34.1995 49.2633 33.519 49.5768 32.8192H50.3008C52.1995 32.8192 53.7442 31.2745 53.7442 29.3758V28.5822C53.7442 27.9715 53.2491 27.4762 52.6383 27.4762C52.0274 27.4762 51.5323 27.9715 51.5323 28.5822V29.3758C51.5323 30.0549 50.9799 30.6073 50.3008 30.6073H7.62158C6.94253 30.6073 6.39 30.0549 6.39 29.3758V17.7947C6.39 17.1155 6.94253 16.5631 7.62158 16.5631H50.3008C50.9799 16.5631 51.5323 17.1155 51.5323 17.7947V18.8531C51.5323 19.4638 52.0274 19.959 52.6383 19.959C53.2491 19.959 53.7442 19.4638 53.7442 18.8531V17.7947C53.7442 15.896 52.1995 14.3512 50.3008 14.3512H49.5768C48.4528 11.8408 46.8933 9.57706 44.9312 7.615C40.6654 3.34925 34.9939 1 28.9614 1C22.9293 1 17.2575 3.34925 12.9905 7.615C11.0283 9.57717 9.46885 11.8409 8.34498 14.3512H7.62158C5.7229 14.3512 4.17811 15.896 4.17811 17.7947V29.3758C4.17811 31.2745 5.72278 32.8192 7.62158 32.8192H8.3441C8.65775 33.5191 9.00568 34.2001 9.3859 34.8602L0.973076 43.274C0.332844 43.9143 0.741048 45.0717 1.65202 45.157L11.2493 46.0563L12.1484 55.6534C12.233 56.5553 13.3825 56.9815 14.0315 56.3324L24.613 45.7519C27.477 46.31 30.4473 46.3095 33.3115 45.7537L43.8913 56.3324C44.5325 56.9736 45.689 56.564 45.7744 55.6534L46.6735 46.0563L56.2708 45.157C57.1724 45.0726 57.5966 43.921 56.9498 43.2739ZM14.5545 9.17925C18.4037 5.33111 23.5201 3.21189 28.9615 3.21189C34.4032 3.21189 39.5192 5.33111 43.3672 9.17914C44.8989 10.7109 46.1595 12.4453 47.1281 14.3513H10.7938C11.7622 12.4453 13.0228 10.7109 14.5545 9.17925ZM14.1312 53.1049L13.3661 44.9375C13.3165 44.4082 12.8974 43.9891 12.3681 43.9396L4.20067 43.1744L10.6121 36.7622C12.138 38.8857 14.0303 40.7384 16.2243 42.2392C18.0553 43.4916 20.0393 44.4556 22.1208 45.1161L14.1312 53.1049ZM24.4817 43.4647C19.2467 42.2904 14.5942 39.0015 11.7156 34.4395C11.7127 34.435 11.7093 34.431 11.7063 34.4266C11.3789 33.9059 11.074 33.3699 10.7941 32.8192H47.1279C46.848 33.3699 46.5429 33.9059 46.2148 34.4272C43.2492 38.9671 38.7635 42.2754 33.4277 43.4679C30.4951 44.1234 27.4144 44.122 24.4817 43.4647ZM45.5548 43.9396C45.0255 43.9891 44.6063 44.4082 44.5568 44.9375L43.7917 53.1049L35.8049 45.1189C40.4131 43.66 44.4865 40.68 47.3081 36.7604L53.7221 43.1744L45.5548 43.9396Z" fill="#2E2E2E"/>
<path d="M18.166 19.481V27.6885C18.166 28.2992 18.6612 28.7945 19.272 28.7945C19.8828 28.7945 20.3779 28.2992 20.3779 27.6885V19.481C20.3779 18.8703 19.8828 18.375 19.272 18.375C18.6612 18.375 18.166 18.8703 18.166 19.481Z" fill="#2E2E2E"/>
<path d="M26.6629 26.5823C25.8694 26.5823 25.1065 26.2633 24.6222 25.7289C24.212 25.2763 23.5125 25.242 23.06 25.6522C22.6075 26.0623 22.5731 26.7617 22.9833 27.2144C23.8932 28.2184 25.2344 28.7942 26.6629 28.7942C28.4314 28.7942 29.9169 27.6628 30.1953 26.1039C30.4053 24.9276 29.8753 23.3924 27.7582 22.6116C26.7638 22.2448 25.8371 21.8456 25.5382 21.7151C25.3548 21.5609 25.3613 21.3498 25.3741 21.2611C25.3927 21.1313 25.4881 20.814 25.9708 20.6687C27.0863 20.333 28.1282 21.1543 28.156 21.1766C28.6235 21.5639 29.3166 21.5015 29.7079 21.0362C30.1009 20.5686 30.0404 19.8711 29.5729 19.4781C29.4942 19.4117 27.6161 17.863 25.3329 18.5507C24.1696 18.9012 23.3466 19.8192 23.1847 20.9468C23.0326 22.0066 23.492 23.0262 24.3838 23.6075C24.4327 23.6394 24.484 23.6674 24.5372 23.6912C24.5849 23.7123 25.7174 24.2165 26.9928 24.687C27.2589 24.7852 28.119 25.1492 28.0179 25.7153C27.9418 26.1414 27.4141 26.5823 26.6629 26.5823Z" fill="#2E2E2E"/>
<path d="M31.5488 23.5847C31.5488 26.4574 33.8859 28.7944 36.7585 28.7944C39.6311 28.7944 41.9682 26.4573 41.9682 23.5847C41.9682 20.7121 39.6311 18.375 36.7585 18.375C33.8859 18.375 31.5488 20.712 31.5488 23.5847ZM39.7564 23.5847C39.7564 25.2376 38.4116 26.5825 36.7586 26.5825C35.1057 26.5825 33.7608 25.2376 33.7608 23.5847C33.7608 21.9317 35.1057 20.5869 36.7586 20.5869C38.4116 20.5869 39.7564 21.9316 39.7564 23.5847Z" fill="#2E2E2E"/>
<path d="M53.6596 23.1609C53.4309 22.6033 52.771 22.3325 52.2152 22.5626C51.6588 22.793 51.3861 23.4507 51.6169 24.0071C51.8478 24.5636 52.5049 24.8351 53.0613 24.6054C53.6175 24.3757 53.891 23.7167 53.6596 23.1609Z" fill="#2E2E2E"/>
</svg>
