<svg width="62" height="58" viewBox="0 0 62 58" fill="none" xmlns="http://www.w3.org/2000/svg">
<g clip-path="url(#clip0_2418_19939)">
<path d="M60.1223 32.3455C59.9765 32.0539 59.6121 31.9081 59.3205 31.8352C57.644 31.8352 43.2112 31.2521 43.2112 14.4867C43.2112 13.9764 42.7738 13.5391 42.2635 13.5391C41.7533 13.5391 41.3159 13.9764 41.3159 14.4867C41.3159 31.2521 26.8831 31.8352 25.2795 31.8352C25.0608 31.8352 24.8421 31.9081 24.6963 32.0539C24.5506 32.1268 24.4777 32.2726 24.4048 32.3455C24.259 32.637 24.259 33.0015 24.4048 33.2931C24.5506 33.5846 24.915 33.8033 25.2795 33.8033C25.2795 33.8033 25.2795 33.8033 25.3524 33.8033C27.0289 33.8033 41.3888 34.3865 41.3888 51.1518C41.3888 51.6621 41.8262 52.0994 42.3364 52.0994C42.8467 52.0994 43.284 51.6621 43.284 51.1518C43.284 34.4594 57.644 33.8033 59.3205 33.8033C59.685 33.8033 59.9765 33.5846 60.1952 33.2931C60.341 33.0015 60.341 32.637 60.1223 32.3455ZM42.2635 44.0083C40.1496 37.0835 34.9742 34.0949 30.8922 32.7828C34.9742 31.4707 40.1496 28.4821 42.2635 21.5573C44.3774 28.4821 49.5528 31.4707 53.6348 32.7828C49.5528 34.0949 44.3774 37.0835 42.2635 44.0083Z" fill="#202020" stroke="#202020" stroke-width="0.5"/>
<path d="M30.2361 13.3918C30.7463 13.3918 31.1837 12.9544 31.1837 12.3713C31.1837 11.861 30.7463 11.4237 30.2361 11.4237C29.3613 11.4237 21.4889 11.1321 21.4889 1.94761C21.4889 1.43736 21.0515 1 20.5413 1C20.031 1 19.5937 1.43736 19.5937 1.94761C19.5937 11.1321 11.7212 11.4237 10.8465 11.4237C10.7736 11.4237 10.7736 11.4237 10.7736 11.4237C10.2634 11.4966 9.89893 11.861 9.89893 12.3713C9.89893 12.8816 10.3363 13.3189 10.8465 13.3189C11.7941 13.3189 19.5937 13.6105 19.5937 22.795C19.5937 23.3052 20.031 23.7426 20.5413 23.7426C20.9787 23.8155 21.416 23.3781 21.416 22.8679C21.416 13.6834 29.2884 13.3918 30.1632 13.3918H30.2361ZM20.4684 17.5467C19.3021 14.7768 17.1882 13.246 15.2201 12.3713C17.334 11.4966 19.3021 9.82005 20.4684 7.1959C21.6347 9.96583 23.7486 11.4966 25.7167 12.3713C23.6028 13.246 21.6347 14.9226 20.4684 17.5467Z" fill="#202020" stroke="#202020" stroke-width="0.5"/>
<path d="M21.8533 44.2987C20.9786 44.2987 13.1061 44.0071 13.1061 34.8226C13.1061 34.3124 12.6688 33.875 12.1585 33.875C11.6483 33.875 11.2109 34.3124 11.2109 34.8226C11.2109 44.0071 3.33843 44.2987 2.46371 44.2987C2.39082 44.2987 2.39082 44.2987 2.39082 44.2987C1.88057 44.3716 1.51611 44.7361 1.51611 45.2463C1.51611 45.7566 1.95346 46.1939 2.46371 46.1939C3.41132 46.1939 11.2109 46.4855 11.2109 55.67C11.2109 56.1803 11.6483 56.6176 12.1585 56.6176C12.5959 56.7634 13.0332 56.326 13.0332 55.7429C13.0332 46.5584 20.9057 46.2668 21.7804 46.2668H21.8533C22.3635 46.2668 22.8009 45.8295 22.8009 45.2463C22.8009 44.7361 22.3635 44.2987 21.8533 44.2987ZM12.0856 50.4946C10.8464 47.7247 8.8054 46.1939 6.83729 45.3192C8.95119 44.4445 10.9193 42.7679 12.0856 40.1438C13.2519 42.9137 15.3658 44.4445 17.3339 45.3192C15.22 46.1939 13.2519 47.8705 12.0856 50.4946Z" fill="#202020" stroke="#202020" stroke-width="0.5"/>
</g>
<defs>
<clipPath id="clip0_2418_19939">
<rect width="61" height="57" fill="white" transform="translate(0.5 0.5)"/>
</clipPath>
</defs>
</svg>
